<svg xmlns="http://www.w3.org/2000/svg" viewBox="0 0 256 256" role="img" aria-label="Coelho da Toca do Coelho">
  <defs>
    <linearGradient id="mint" x1="0" x2="0" y1="0" y2="1">
      <stop offset="0" stop-color="#b9f8ea"/>
      <stop offset="1" stop-color="#74d8c2"/>
    </linearGradient>
    <linearGradient id="ear" x1="0" x2="0" y1="0" y2="1">
      <stop offset="0" stop-color="#ffa5b6"/>
      <stop offset="1" stop-color="#ff738e"/>
    </linearGradient>
    <linearGradient id="soil" x1="0" x2="0" y1="0" y2="1">
      <stop offset="0" stop-color="#c7843d"/>
      <stop offset="1" stop-color="#9a5b22"/>
    </linearGradient>
  </defs>

  <ellipse cx="128" cy="212" rx="110" ry="28" fill="#d8d8d8" opacity=".45"/>

  <g stroke="#0d3c3a" stroke-width="4" stroke-linecap="round" stroke-linejoin="round">
    <ellipse cx="92" cy="72" rx="22" ry="56" transform="rotate(-20 92 72)" fill="url(#mint)"/>
    <ellipse cx="163" cy="72" rx="22" ry="56" transform="rotate(20 163 72)" fill="url(#mint)"/>
    <ellipse cx="92" cy="73" rx="12" ry="40" transform="rotate(-20 92 73)" fill="url(#ear)" opacity=".85"/>
    <ellipse cx="163" cy="73" rx="12" ry="40" transform="rotate(20 163 73)" fill="url(#ear)" opacity=".85"/>

    <circle cx="128" cy="118" r="52" fill="url(#mint)"/>
    <ellipse cx="127" cy="142" rx="37" ry="24" fill="#fffbe9"/>

    <ellipse cx="108" cy="112" rx="11" ry="14" fill="#fff"/>
    <ellipse cx="108" cy="114" rx="5" ry="8" fill="#0a0a0a"/>
    <path d="M143 114c8 0 13-6 13-13" fill="none"/>

    <ellipse cx="127" cy="126" rx="8" ry="6" fill="#ff8ea3"/>
    <path d="M127 132v6"/>
    <path d="M127 138c-6 5-13 6-20 5" fill="none"/>
    <path d="M127 138c6 5 13 6 20 5" fill="none"/>

    <path d="M88 148l-18 28c14 8 30 14 58 14 27 0 46-7 61-16l-22-28" fill="url(#mint)"/>

    <path d="M166 144c17 2 28 15 28 28 0 11-7 20-18 25" fill="url(#mint)"/>
    <path d="M177 177c7-2 11 4 9 10" fill="none"/>

    <ellipse cx="128" cy="198" rx="104" ry="26" fill="url(#soil)"/>
    <ellipse cx="128" cy="196" rx="78" ry="16" fill="#6b3d13" opacity=".35"/>
  </g>
</svg>
