<svg xmlns="http://www.w3.org/2000/svg" width="383" height="380" viewBox="0 0 383 380">
<g>
<path d="M 322.39 361.89 C315.32,363.99 314.64,364.00 193.39,363.96 L 71.50 363.91 L 64.50 361.62 C54.86,358.47 48.26,354.93 41.93,349.53 C30.81,340.04 22.50,327.06 19.50,314.49 C17.95,307.98 17.47,261.21 19.00,266.00 C19.72,268.25 19.81,268.28 19.90,266.37 C19.96,265.20 20.67,263.68 21.50,263.00 C22.33,262.32 23.00,260.91 23.00,259.88 C23.00,258.84 23.34,258.01 23.75,258.03 C25.26,258.10 27.78,260.60 28.27,262.52 C28.54,263.61 28.86,252.80 28.98,238.50 C29.40,187.92 30.59,195.10 31.14,251.50 C31.74,313.90 31.74,313.85 38.74,325.42 C46.10,337.59 57.14,345.82 71.05,349.52 C78.80,351.59 307.44,351.66 316.04,349.60 C335.16,345.03 350.28,330.00 353.86,312.00 C354.46,308.98 355.24,293.00 355.58,276.50 C355.92,260.00 356.38,246.31 356.60,246.08 C356.82,245.85 357.08,252.15 357.17,260.08 C357.31,271.35 357.49,273.08 358.00,268.00 C358.36,264.42 358.78,262.62 358.93,264.00 L 359.20 266.50 L 359.85 264.19 C360.21,262.92 360.84,261.91 361.25,261.94 C361.66,261.97 362.40,262.00 362.89,262.00 C363.38,262.00 364.05,263.07 364.38,264.38 C364.71,265.69 365.88,267.00 366.99,267.29 C368.92,267.79 369.00,268.62 369.00,288.22 C369.00,304.88 368.66,309.91 367.16,315.57 C361.02,338.67 345.12,355.13 322.39,361.89 ZM 214.14 304.77 C206.95,308.33 206.11,308.51 195.55,308.70 C189.47,308.81 183.15,308.55 181.50,308.13 C176.76,306.91 169.15,302.79 160.77,296.91 C156.52,293.94 149.77,289.49 145.77,287.04 C136.94,281.61 128.69,274.03 125.26,268.19 L 122.72 263.85 L 124.43 253.67 C126.28,242.63 129.89,233.38 131.07,236.66 C131.69,238.39 131.76,238.38 132.25,236.50 C132.53,235.40 132.82,237.11 132.88,240.31 C132.96,243.95 132.63,245.89 132.00,245.50 C130.58,244.62 130.76,252.60 132.27,257.59 C134.68,265.59 144.02,274.45 157.00,281.05 C158.38,281.75 163.77,285.09 169.00,288.46 C181.24,296.36 184.65,297.43 195.44,296.76 C204.76,296.17 207.88,294.92 220.84,286.53 C224.70,284.04 228.13,282.00 228.47,282.00 C228.81,282.00 231.43,280.25 234.29,278.11 C241.43,272.78 247.70,269.77 250.07,270.52 C251.15,270.86 251.77,271.56 251.46,272.07 C251.14,272.58 251.81,273.00 252.94,273.00 C254.49,273.00 255.00,272.36 255.00,270.39 C255.00,268.49 254.60,267.94 253.50,268.36 C251.45,269.15 251.48,263.90 253.56,259.89 C254.45,258.16 255.06,254.66 254.99,251.69 C254.92,248.83 254.85,245.21 254.82,243.63 C254.78,240.88 256.61,238.64 258.12,239.57 C258.51,239.82 259.13,238.67 259.50,237.02 C260.09,234.33 260.32,234.17 261.68,235.53 C263.92,237.78 265.98,246.60 265.98,254.00 C265.98,266.53 258.81,276.18 240.75,287.93 C235.66,291.24 229.29,295.54 226.59,297.50 C223.89,299.45 218.29,302.72 214.14,304.77 ZM 135.60 154.93 C132.56,157.17 129.46,159.00 128.70,159.00 C127.10,159.00 124.00,155.87 124.00,154.25 C124.00,153.66 123.66,153.02 123.23,152.83 C122.19,152.38 116.97,137.01 116.99,134.45 C116.99,133.32 116.44,131.84 115.75,131.15 C114.83,130.23 114.50,124.48 114.50,109.49 C114.50,91.63 114.71,88.86 116.19,87.38 C117.79,85.78 118.31,86.03 124.92,91.44 C133.18,98.19 139.25,104.13 142.88,109.00 C144.32,110.93 145.74,112.72 146.05,113.00 C147.23,114.05 155.07,129.09 157.05,134.12 C159.73,140.92 159.07,143.50 154.25,145.05 C152.19,145.71 149.82,146.81 149.00,147.48 C148.18,148.16 146.06,149.20 144.30,149.79 C142.54,150.38 138.63,152.69 135.60,154.93 ZM 260.46 157.40 C258.16,159.70 257.60,159.48 253.33,154.68 C251.23,152.31 248.73,150.08 247.78,149.73 C243.96,148.30 229.99,137.72 229.88,136.17 C229.64,132.66 230.29,130.39 232.62,126.51 C233.94,124.31 235.30,121.71 235.63,120.75 C235.96,119.79 236.63,119.00 237.12,119.00 C237.60,119.00 238.00,118.32 238.00,117.50 C238.00,116.68 238.42,116.00 238.93,116.00 C239.45,116.00 240.13,115.21 240.45,114.25 C241.34,111.57 250.77,101.21 259.33,93.50 C269.22,84.59 269.53,84.46 270.73,88.75 C271.15,90.26 271.49,100.05 271.47,110.50 C271.45,129.11 271.38,129.70 268.29,139.00 C264.26,151.16 262.44,155.41 260.46,157.40 ZM 258.93 255.41 C259.89,256.58 260.62,256.73 261.54,255.97 C262.44,255.22 262.95,255.28 263.32,256.21 C263.65,257.03 263.87,256.86 263.92,255.75 C263.96,254.79 263.55,254.00 263.00,254.00 C262.45,254.00 262.00,253.05 262.00,251.89 C262.00,250.38 261.55,249.96 260.42,250.39 C259.55,250.73 258.46,251.00 258.01,251.00 C256.83,251.00 257.35,253.51 258.93,255.41 Z" fill="rgb(118,163,150)"/>
<path d="M 135.60 154.93 C138.63,152.69 142.54,150.38 144.30,149.79 C146.06,149.20 148.18,148.16 149.00,147.48 C149.82,146.81 152.19,145.71 154.25,145.05 C159.07,143.50 159.73,140.92 157.05,134.12 C155.16,129.33 147.95,115.44 146.26,113.24 C148.32,115.52 154.57,126.08 156.93,131.35 C158.84,135.60 160.58,138.05 162.01,138.50 C163.58,139.00 164.04,139.75 163.66,141.20 C162.84,144.33 164.60,147.68 167.43,148.39 C168.84,148.75 170.00,149.73 170.00,150.58 C170.00,151.43 170.40,151.87 170.89,151.57 C172.04,150.86 173.22,154.68 173.04,158.50 C172.96,160.16 173.57,163.08 174.41,165.00 L 175.92 168.50 L 175.96 165.58 C176.02,161.14 177.12,163.22 177.86,169.18 C178.15,171.51 178.12,172.87 178.78,173.58 C179.68,174.55 181.85,174.33 187.85,173.72 C188.85,173.62 189.96,173.51 191.19,173.39 C196.65,172.86 198.18,173.04 199.51,174.37 C201.22,176.07 204.68,176.49 206.65,175.23 C207.28,174.83 208.09,171.80 208.45,168.50 C209.36,160.14 209.92,157.84 210.91,158.44 C211.37,158.73 212.03,157.59 212.37,155.90 C212.71,154.22 214.51,151.06 216.37,148.88 C218.42,146.49 220.01,143.36 220.39,140.96 C220.83,138.23 221.53,137.00 222.65,137.00 C224.50,137.00 229.67,131.13 233.01,125.85 C232.88,126.07 232.75,126.29 232.62,126.51 C230.29,130.39 229.64,132.66 229.88,136.17 C229.99,137.72 243.96,148.30 247.78,149.73 C248.73,150.08 251.23,152.31 253.33,154.68 C257.60,159.48 258.16,159.70 260.46,157.40 C262.44,155.41 264.26,151.16 268.29,139.00 C268.99,136.91 269.53,135.25 269.95,133.74 C268.91,140.90 268.92,143.17 269.81,142.62 C270.38,142.27 271.50,142.64 272.30,143.44 C273.10,144.25 274.04,144.63 274.38,144.29 C274.72,143.95 275.00,144.44 275.00,145.39 C275.00,146.34 275.45,146.84 276.00,146.50 C278.18,145.15 276.81,151.35 272.97,160.20 C268.98,169.40 266.00,174.02 266.00,171.02 C266.00,170.06 265.55,170.23 264.59,171.55 C263.81,172.61 263.37,173.79 263.60,174.17 C263.84,174.55 263.56,175.16 262.98,175.52 C262.39,175.87 262.15,176.92 262.44,177.83 C262.77,178.88 260.47,182.80 256.23,188.41 C252.53,193.31 248.93,198.07 248.24,198.99 C247.18,200.39 247.47,201.64 249.97,206.59 C253.16,212.91 259.48,228.14 262.77,237.16 C262.42,236.46 262.05,235.91 261.68,235.53 C260.32,234.17 260.09,234.33 259.50,237.02 C259.13,238.67 258.51,239.82 258.12,239.57 C256.61,238.64 254.78,240.88 254.82,243.63 C254.85,245.21 254.92,248.83 254.99,251.69 C255.06,254.66 254.45,258.16 253.56,259.89 C251.48,263.90 251.45,269.15 253.50,268.36 C254.60,267.94 255.00,268.49 255.00,270.39 C255.00,272.36 254.49,273.00 252.94,273.00 C251.81,273.00 251.14,272.58 251.46,272.07 C251.77,271.56 251.15,270.86 250.07,270.52 C247.70,269.77 241.43,272.78 234.29,278.11 C231.43,280.25 228.81,282.00 228.47,282.00 C228.13,282.00 224.70,284.04 220.84,286.53 C207.88,294.92 204.76,296.17 195.44,296.76 C184.65,297.43 181.24,296.36 169.00,288.46 C163.77,285.09 158.38,281.75 157.00,281.05 C144.02,274.45 134.68,265.59 132.27,257.59 C130.76,252.60 130.58,244.62 132.00,245.50 C132.63,245.89 132.96,243.95 132.88,240.31 C132.82,237.11 132.53,235.40 132.25,236.50 C131.76,238.38 131.69,238.39 131.07,236.66 C129.89,233.38 126.28,242.63 124.43,253.67 L 122.72 263.85 L 125.26 268.19 C125.39,268.41 125.53,268.63 125.67,268.86 C125.48,268.57 125.29,268.29 125.10,268.00 C121.57,262.61 121.50,262.31 121.52,252.50 C121.54,242.67 121.64,242.25 127.33,228.00 C130.51,220.02 134.51,210.45 136.22,206.72 L 139.32 199.95 L 136.16 195.72 C124.58,180.27 122.00,176.09 122.00,172.80 C122.00,169.55 120.57,167.00 118.74,167.00 C118.27,167.00 118.17,167.56 118.52,168.25 C118.86,168.94 118.44,168.63 117.57,167.56 C116.71,166.49 116.00,164.55 116.00,163.25 C116.00,161.95 115.60,161.13 115.10,161.44 C113.87,162.20 113.00,159.56 113.00,155.08 C113.00,153.02 112.67,151.00 112.27,150.60 C111.86,150.20 111.43,147.25 111.29,144.04 C111.08,138.97 111.30,138.15 113.03,137.70 C114.19,137.40 115.35,137.80 115.84,138.67 C116.41,139.69 116.71,138.98 116.81,136.40 C116.89,134.34 116.40,131.98 115.73,131.17 C115.63,131.06 115.54,130.88 115.46,130.65 C115.55,130.88 115.65,131.05 115.75,131.15 C116.44,131.84 116.99,133.32 116.99,134.45 C116.97,137.01 122.19,152.38 123.23,152.83 C123.66,153.02 124.00,153.66 124.00,154.25 C124.00,155.87 127.10,159.00 128.70,159.00 C129.46,159.00 132.56,157.17 135.60,154.93 ZM 247.79 244.46 C248.71,245.38 250.00,243.88 250.00,241.88 C250.00,240.77 248.91,237.48 247.57,234.55 C246.23,231.63 244.82,227.49 244.44,225.37 C244.05,223.24 243.42,221.05 243.04,220.50 C242.65,219.95 241.73,217.93 240.99,216.00 C240.25,214.07 238.26,210.48 236.57,208.00 C231.03,199.87 230.90,199.41 233.31,196.29 C234.49,194.75 235.82,193.35 236.25,193.16 C238.16,192.34 240.10,186.72 239.47,183.86 C238.92,181.36 239.16,180.77 240.91,180.31 C244.86,179.28 243.97,178.06 227.83,162.36 C225.81,160.40 223.72,159.06 223.19,159.38 C221.91,160.17 221.23,164.20 220.04,177.89 C219.50,184.15 218.86,189.48 218.62,189.71 C218.38,189.95 216.01,189.47 213.34,188.64 C196.96,183.55 186.83,183.73 171.21,189.39 C171.04,189.45 170.89,189.50 170.73,189.56 C169.02,190.18 167.96,190.57 167.27,190.22 C166.07,189.60 166.05,186.70 165.80,178.78 C165.57,171.21 165.12,168.69 163.78,167.35 C162.15,165.72 161.83,165.86 157.83,169.82 C155.51,172.12 153.19,174.00 152.69,174.00 C152.18,174.00 150.07,175.86 147.99,178.14 C144.52,181.94 144.29,182.54 145.23,185.39 C145.79,187.10 146.77,188.95 147.39,189.50 C148.02,190.05 150.02,192.41 151.84,194.74 L 155.15 198.98 L 150.58 206.32 C146.70,212.54 146.00,214.45 146.00,218.75 C146.00,224.08 147.39,225.75 149.81,223.33 C151.26,221.89 153.07,221.54 152.88,222.75 C152.32,226.32 158.09,230.05 161.19,228.12 C163.85,226.45 177.13,227.77 178.79,229.86 C180.15,231.58 186.62,231.89 192.56,230.53 C194.78,230.02 195.97,230.26 196.93,231.41 C197.65,232.29 199.43,233.01 200.87,233.03 C203.91,233.07 207.48,235.42 206.61,236.82 C206.29,237.34 206.67,238.31 207.46,238.96 C208.60,239.91 209.15,239.74 210.18,238.08 C211.56,235.87 215.43,235.27 216.56,237.09 C216.93,237.70 218.32,237.98 219.65,237.73 C221.34,237.40 222.39,237.85 223.12,239.22 C223.90,240.69 224.79,241.02 226.68,240.54 C228.06,240.20 229.71,240.33 230.35,240.84 C231.44,241.72 234.71,242.38 243.40,243.48 C245.55,243.75 247.52,244.19 247.79,244.46 ZM 33.29 312.80 C31.65,304.40 31.51,289.57 31.14,251.50 C30.59,195.10 29.40,187.92 28.98,238.50 C28.86,252.80 28.54,263.61 28.27,262.52 C27.78,260.60 25.26,258.10 23.75,258.03 C23.34,258.01 23.00,258.84 23.00,259.88 C23.00,260.91 22.33,262.32 21.50,263.00 C20.67,263.68 19.96,265.20 19.90,266.37 C19.81,268.28 19.72,268.25 19.00,266.00 C17.54,261.43 17.91,303.82 19.29,313.35 C19.18,312.87 19.06,312.39 18.95,311.91 C17.15,303.92 17.05,297.93 17.03,193.08 C17.01,132.49 17.18,83.08 17.39,83.08 L 17.39 83.08 C18.50,84.26 18.92,95.97 19.08,130.50 C19.19,152.86 19.59,166.65 20.06,164.00 C20.49,161.52 21.27,156.80 21.78,153.50 C22.30,150.20 23.20,146.38 23.80,145.00 C24.79,142.69 24.88,142.83 24.94,146.81 C24.97,149.41 25.40,150.87 26.00,150.50 C26.55,150.16 27.00,150.36 27.00,150.94 C27.00,151.52 26.44,152.01 25.75,152.02 C24.87,152.03 24.83,152.25 25.62,152.77 C26.24,153.17 27.17,158.83 27.71,165.50 C28.59,176.28 28.71,174.10 28.86,144.00 C28.95,125.47 29.45,109.84 29.96,109.03 C30.53,108.13 31.02,145.59 31.24,207.53 C31.50,278.77 31.43,302.05 33.29,312.80 ZM 368.87 272.96 C368.67,268.03 368.18,267.60 366.99,267.29 C365.88,267.00 364.71,265.69 364.38,264.38 C364.05,263.07 363.38,262.00 362.89,262.00 C362.40,262.00 361.66,261.97 361.25,261.94 C360.84,261.91 360.21,262.92 359.85,264.19 L 359.20 266.50 L 358.93 264.00 C358.78,262.62 358.36,264.42 358.00,268.00 C357.49,273.08 357.31,271.35 357.17,260.08 C357.08,252.15 356.82,245.85 356.60,246.08 C356.38,246.31 355.92,260.00 355.58,276.50 C355.32,288.93 354.82,301.06 354.33,307.59 C354.88,297.20 355.12,269.53 355.15,216.00 C355.18,164.68 355.57,127.23 356.05,129.50 C356.51,131.70 357.01,147.00 357.17,163.50 C357.41,189.12 357.50,190.58 357.76,173.50 C357.93,161.75 358.41,154.07 358.92,154.88 C359.55,155.89 359.97,155.42 360.47,153.13 C361.22,149.73 363.00,148.84 363.00,151.88 C363.00,152.91 363.65,154.29 364.44,154.95 C365.23,155.61 366.07,157.13 366.30,158.32 C366.54,159.52 366.85,158.02 366.99,155.00 C367.14,151.98 367.57,142.75 367.95,134.50 C368.33,126.25 368.73,162.06 368.82,214.07 C368.87,240.11 368.90,259.04 368.87,272.96 ZM 258.93 255.41 C257.35,253.51 256.83,251.00 258.01,251.00 C258.46,251.00 259.55,250.73 260.42,250.39 C261.55,249.96 262.00,250.38 262.00,251.89 C262.00,253.05 262.45,254.00 263.00,254.00 C263.55,254.00 263.96,254.79 263.92,255.75 C263.87,256.86 263.65,257.03 263.32,256.21 C262.95,255.28 262.44,255.22 261.54,255.97 C260.62,256.73 259.89,256.58 258.93,255.41 ZM 271.32 124.22 C271.45,121.02 271.46,116.79 271.47,110.50 C271.49,100.05 271.15,90.26 270.73,88.75 C269.55,84.54 269.23,84.59 259.86,93.02 C268.89,84.89 269.27,84.76 270.51,87.75 C271.77,90.77 272.18,114.05 271.32,124.22 ZM 41.93 349.53 C35.83,344.33 30.84,338.49 26.97,332.04 C30.91,338.47 36.03,344.49 41.93,349.53 ZM 130.52 274.86 C134.14,278.65 138.87,282.56 143.90,285.84 C138.63,282.43 134.17,278.77 130.52,274.86 ZM 265.27 245.86 C265.12,244.98 264.96,244.13 264.78,243.31 C264.95,244.06 265.12,244.93 265.27,245.86 Z" fill="rgb(148,212,176)"/>
<path d="M 33.29 312.80 C31.43,302.05 31.50,278.77 31.24,207.53 C31.02,145.59 30.53,108.13 29.96,109.03 C29.45,109.84 28.95,125.47 28.86,144.00 C28.71,174.10 28.59,176.28 27.71,165.50 C27.17,158.83 26.24,153.17 25.62,152.77 C24.83,152.25 24.87,152.03 25.75,152.02 C26.44,152.01 27.00,151.52 27.00,150.94 C27.00,150.36 26.55,150.16 26.00,150.50 C25.40,150.87 24.97,149.41 24.94,146.81 C24.88,142.83 24.79,142.69 23.80,145.00 C23.20,146.38 22.30,150.20 21.78,153.50 C21.27,156.80 20.49,161.52 20.06,164.00 C19.59,166.65 19.19,152.86 19.08,130.50 C18.93,99.54 18.58,86.93 17.71,83.80 C18.01,64.56 18.53,62.64 19.64,59.39 C25.78,41.45 37.67,27.81 54.73,19.13 C55.68,18.65 56.53,18.21 57.40,17.82 C65.80,14.00 75.93,14.00 190.53,14.00 L 192.93 14.00 C268.91,14.00 314.70,14.37 318.11,15.00 C330.71,17.35 343.99,24.82 352.51,34.34 C359.06,41.65 366.22,55.70 368.15,65.00 C369.25,70.30 369.44,93.44 369.17,190.00 C369.07,225.59 369.03,251.03 368.87,269.49 C368.89,255.94 368.87,238.01 368.82,214.07 C368.73,162.06 368.33,126.25 367.95,134.50 C367.57,142.75 367.14,151.98 366.99,155.00 C366.85,158.02 366.54,159.52 366.30,158.32 C366.07,157.13 365.23,155.61 364.44,154.95 C363.65,154.29 363.00,152.91 363.00,151.88 C363.00,148.84 361.22,149.73 360.47,153.13 C359.97,155.42 359.55,155.89 358.92,154.88 C358.41,154.07 357.93,161.75 357.76,173.50 C357.50,190.58 357.41,189.12 357.17,163.50 C357.01,147.00 356.51,131.70 356.05,129.50 C355.57,127.23 355.18,164.68 355.15,216.00 C355.12,269.53 354.88,297.20 354.33,307.59 C354.29,308.05 354.26,308.49 354.22,308.90 C354.84,298.52 355.06,264.07 355.02,190.00 C354.94,65.51 354.95,65.66 350.04,55.62 C343.71,42.67 330.66,31.93 317.79,29.07 C311.28,27.63 74.81,27.47 68.68,28.91 C52.66,32.66 37.81,47.84 32.89,65.50 C31.74,69.65 31.50,90.68 31.50,188.50 C31.50,195.34 31.50,201.80 31.50,207.91 C31.49,279.10 31.48,302.41 33.34,313.03 C33.33,312.96 33.31,312.88 33.29,312.80 ZM 247.79 244.46 C247.52,244.19 245.55,243.75 243.40,243.48 C234.71,242.38 231.44,241.72 230.35,240.84 C229.71,240.33 228.06,240.20 226.68,240.54 C224.79,241.02 223.90,240.69 223.12,239.22 C222.39,237.85 221.34,237.40 219.65,237.73 C218.32,237.98 216.93,237.70 216.56,237.09 C215.43,235.27 211.56,235.87 210.18,238.08 C209.15,239.74 208.60,239.91 207.46,238.96 C206.67,238.31 206.29,237.34 206.61,236.82 C207.48,235.42 203.91,233.07 200.87,233.03 C199.43,233.01 197.65,232.29 196.93,231.41 C195.97,230.26 194.78,230.02 192.56,230.53 C186.62,231.89 180.15,231.58 178.79,229.86 C177.13,227.77 163.85,226.45 161.19,228.12 C158.09,230.05 152.32,226.32 152.88,222.75 C153.07,221.54 151.26,221.89 149.81,223.33 C147.39,225.75 146.00,224.08 146.00,218.75 C146.00,214.45 146.70,212.54 150.58,206.32 L 155.15 198.98 L 151.84 194.74 C150.02,192.41 148.02,190.05 147.39,189.50 C146.77,188.95 145.79,187.10 145.23,185.39 C144.29,182.54 144.52,181.94 147.99,178.14 C150.07,175.86 152.18,174.00 152.69,174.00 C153.19,174.00 155.51,172.12 157.83,169.82 C161.83,165.86 162.15,165.72 163.78,167.35 C165.12,168.69 165.57,171.21 165.80,178.78 C166.05,186.70 166.07,189.60 167.27,190.22 C167.96,190.57 169.02,190.18 170.73,189.56 C170.89,189.50 171.04,189.45 171.21,189.39 C186.83,183.73 196.96,183.55 213.34,188.64 C216.01,189.47 218.38,189.95 218.62,189.71 C218.86,189.48 219.50,184.15 220.04,177.89 C221.23,164.20 221.91,160.17 223.19,159.38 C223.72,159.06 225.81,160.40 227.83,162.36 C243.97,178.06 244.86,179.28 240.91,180.31 C239.16,180.77 238.92,181.36 239.47,183.86 C240.10,186.72 238.16,192.34 236.25,193.16 C235.82,193.35 234.49,194.75 233.31,196.29 C230.90,199.41 231.03,199.87 236.57,208.00 C238.26,210.48 240.25,214.07 240.99,216.00 C241.73,217.93 242.65,219.95 243.04,220.50 C243.42,221.05 244.05,223.24 244.44,225.37 C244.82,227.49 246.23,231.63 247.57,234.55 C248.91,237.48 250.00,240.77 250.00,241.88 C250.00,243.88 248.71,245.38 247.79,244.46 ZM 178.36 172.80 C178.11,172.01 178.07,170.84 177.86,169.18 C177.12,163.22 176.02,161.14 175.96,165.58 L 175.92 168.50 L 174.41 165.00 C173.57,163.08 172.96,160.16 173.04,158.50 C173.22,154.68 172.04,150.86 170.89,151.57 C170.40,151.87 170.00,151.43 170.00,150.58 C170.00,149.73 168.84,148.75 167.43,148.39 C164.60,147.68 162.84,144.33 163.66,141.20 C164.04,139.75 163.58,139.00 162.01,138.50 C160.58,138.05 158.84,135.60 156.93,131.35 C154.57,126.08 148.32,115.52 146.26,113.24 C146.18,113.13 146.11,113.05 146.05,113.00 C145.74,112.72 144.32,110.93 142.88,109.00 C139.25,104.13 133.18,98.19 124.92,91.44 C118.31,86.03 117.79,85.78 116.19,87.38 C114.71,88.86 114.50,91.63 114.50,109.49 C114.50,122.79 114.76,128.81 115.46,130.65 C115.54,130.88 115.63,131.06 115.73,131.17 C116.40,131.98 116.89,134.34 116.81,136.40 C116.71,138.98 116.41,139.69 115.84,138.67 C115.35,137.80 114.19,137.40 113.03,137.70 C111.30,138.15 111.08,138.97 111.29,144.04 C111.43,147.25 111.86,150.20 112.27,150.60 C112.67,151.00 113.00,153.02 113.00,155.08 C113.00,159.56 113.87,162.20 115.10,161.44 C115.60,161.13 116.00,161.95 116.00,163.25 C116.00,164.55 116.71,166.49 117.57,167.56 C118.44,168.63 118.86,168.94 118.52,168.25 C118.17,167.56 118.27,167.00 118.74,167.00 C120.57,167.00 122.00,169.55 122.00,172.80 C122.00,175.15 123.31,177.94 128.24,184.94 C126.57,182.71 124.65,180.15 122.44,177.23 C120.67,174.88 117.97,170.38 116.45,167.23 C114.92,164.08 113.11,160.38 112.43,159.00 C109.35,152.80 104.91,136.93 103.40,126.70 C101.39,113.14 102.02,95.95 105.00,82.59 C108.17,68.33 110.84,67.13 122.34,74.73 C132.10,81.17 152.39,101.58 158.76,111.36 C168.79,126.77 176.35,148.58 177.83,166.41 ZM 271.32 124.22 C272.18,114.05 271.77,90.77 270.51,87.75 C269.27,84.77 268.89,84.89 259.93,92.96 L 259.86 93.02 C259.68,93.18 259.51,93.34 259.33,93.50 C250.77,101.21 241.34,111.57 240.45,114.25 C240.13,115.21 239.45,116.00 238.93,116.00 C238.42,116.00 238.00,116.68 238.00,117.50 C238.00,118.32 237.60,119.00 237.12,119.00 C236.63,119.00 235.96,119.79 235.63,120.75 C235.33,121.62 234.20,123.81 233.01,125.85 C229.67,131.13 224.50,137.00 222.65,137.00 C221.53,137.00 220.83,138.23 220.39,140.96 C220.01,143.36 218.42,146.49 216.37,148.88 C214.51,151.06 212.71,154.22 212.37,155.90 C212.03,157.59 211.37,158.73 210.91,158.44 C209.92,157.84 209.36,160.14 208.45,168.50 C208.40,168.99 208.33,169.48 208.26,169.96 L 208.45 168.05 C211.49,136.78 222.25,114.06 244.77,91.31 C257.39,78.57 269.76,69.74 274.36,70.20 C277.02,70.46 277.59,71.12 279.19,75.76 C282.76,86.13 284.28,98.59 283.66,112.50 C283.35,119.65 282.43,128.88 281.63,133.00 C280.08,141.00 277.59,149.09 274.27,157.07 C277.09,149.94 277.91,145.32 276.00,146.50 C275.45,146.84 275.00,146.34 275.00,145.39 C275.00,144.44 274.72,143.95 274.38,144.29 C274.04,144.63 273.10,144.25 272.30,143.44 C271.50,142.64 270.38,142.27 269.81,142.62 C268.92,143.17 268.91,140.90 269.95,133.74 C270.77,130.79 271.15,128.37 271.32,124.22 ZM 71.68 349.63 C90.15,351.45 308.07,351.51 316.04,349.60 C307.60,351.62 87.01,351.59 71.68,349.63 ZM 250.65 195.80 C252.16,193.80 254.18,191.12 256.23,188.41 C260.47,182.80 262.77,178.88 262.44,177.83 C262.15,176.92 262.39,175.87 262.98,175.52 C263.56,175.16 263.84,174.55 263.60,174.17 C263.37,173.79 263.81,172.61 264.59,171.55 C265.55,170.23 266.00,170.06 266.00,171.02 C266.00,172.55 266.77,172.10 268.05,170.10 C263.61,178.32 258.29,186.31 252.20,193.87 ZM 207.46 173.60 C207.19,174.47 206.91,175.07 206.65,175.23 C204.68,176.49 201.22,176.07 199.51,174.37 C199.23,174.09 198.94,173.86 198.61,173.68 ZM 54.62 342.19 L 71.68 349.63 C71.40,349.60 71.19,349.56 71.05,349.52 C65.01,347.92 59.51,345.46 54.62,342.19 ZM 41.93 349.53 C42.35,349.89 42.78,350.25 43.20,350.59 C37.30,346.04 32.31,340.53 28.20,334.02 C31.88,339.69 36.46,344.86 41.93,349.53 ZM 258.19 225.37 C255.61,219.02 252.80,212.47 250.79,208.26 C250.83,208.32 250.87,208.38 250.91,208.42 C251.61,209.30 254.96,217.25 258.19,225.37 ZM 366.76 317.01 C365.95,321.09 364.83,323.43 363.29,326.55 C364.65,323.52 365.81,320.33 366.76,317.01 ZM 137.08 196.96 L 139.32 199.95 L 137.72 203.43 C138.46,201.66 138.84,200.02 138.61,199.43 C138.47,199.05 138.01,198.30 137.08,196.96 ZM 18.68 310.63 C18.76,311.06 18.86,311.48 18.95,311.91 C19.06,312.39 19.18,312.87 19.29,313.35 C19.36,313.81 19.43,314.19 19.50,314.49 C20.08,316.91 20.86,319.35 21.81,321.78 C21.61,321.32 21.41,320.87 21.22,320.41 C20.11,317.74 19.29,314.94 18.68,310.63 ZM 17.06 244.06 C17.09,261.75 17.14,274.39 17.25,283.60 C17.09,273.73 17.05,260.94 17.06,244.06 ZM 322.39 361.89 C336.52,357.68 348.01,349.73 356.16,338.76 C348.04,349.78 336.55,357.67 322.39,361.89 ZM 185.98 173.91 C183.57,174.15 181.93,174.28 180.80,174.23 L 181.50 174.15 C182.21,174.07 183.84,173.98 185.98,173.91 ZM 54.62 342.19 C48.27,337.95 42.95,332.35 38.79,325.51 C42.92,332.30 48.28,337.92 54.62,342.19 ZM 352.16 318.12 C349.92,324.40 346.25,330.18 341.53,335.07 C346.21,330.20 349.87,324.44 352.16,318.12 ZM 137.07 204.86 L 136.22 206.72 C135.05,209.27 132.82,214.53 130.51,220.15 C133.42,213.03 136.11,206.74 137.03,204.93 C137.05,204.91 137.06,204.89 137.07,204.86 ZM 341.53 335.07 C334.82,342.05 326.00,347.22 316.05,349.60 C325.97,347.23 334.81,342.03 341.53,335.07 ZM 121.91 243.85 C121.55,246.22 121.53,248.63 121.52,252.50 C121.51,256.82 121.52,259.29 121.83,261.17 C121.52,259.29 121.51,256.81 121.52,252.50 C121.52,248.64 121.53,246.27 121.91,243.85 Z" fill="rgb(179,223,202)"/>
<path d="M 0.00 190.00 L 0.00 0.00 L 191.50 0.00 L 383.00 0.00 L 383.00 190.00 L 383.00 380.00 L 191.50 380.00 L 0.00 380.00 L 0.00 190.00 ZM 322.39 361.89 C340.54,356.49 354.28,345.05 362.21,328.74 C369.15,314.46 368.81,321.23 369.17,190.00 C369.44,93.44 369.25,70.30 368.15,65.00 C366.22,55.70 359.06,41.65 352.51,34.34 C343.99,24.82 330.71,17.35 318.11,15.00 C314.70,14.37 268.91,14.00 192.93,14.00 C64.01,14.00 64.88,13.97 54.73,19.13 C37.67,27.81 25.78,41.45 19.64,59.39 C17.58,65.43 17.55,66.90 17.21,183.50 C16.83,316.00 16.58,310.89 24.06,326.50 C32.37,343.86 45.77,355.50 64.50,361.62 L 71.50 363.91 L 193.39 363.96 C314.64,364.00 315.32,363.99 322.39,361.89 ZM 70.61 349.48 C57.06,345.76 45.98,337.39 38.73,325.40 C31.08,312.76 31.50,320.64 31.50,188.50 C31.50,90.68 31.74,69.65 32.89,65.50 C37.81,47.84 52.66,32.66 68.68,28.91 C74.81,27.47 311.28,27.63 317.79,29.07 C330.66,31.93 343.71,42.67 350.04,55.62 C354.95,65.66 354.94,65.51 355.02,190.00 C355.07,275.21 354.77,307.98 353.92,312.00 C350.05,330.23 335.13,345.04 316.04,349.60 C307.84,351.56 77.78,351.45 70.61,349.48 ZM 214.14 304.77 C218.29,302.72 223.89,299.45 226.59,297.50 C229.29,295.54 235.66,291.24 240.75,287.93 C258.81,276.18 265.98,266.53 265.98,254.00 C265.98,250.43 265.34,245.25 264.56,242.50 C262.95,236.85 252.23,210.07 250.91,208.42 C250.43,207.83 249.37,205.75 248.56,203.79 L 247.07 200.24 L 252.20 193.87 C267.25,175.18 277.59,153.81 281.63,133.00 C282.43,128.88 283.35,119.65 283.66,112.50 C284.28,98.59 282.76,86.13 279.19,75.76 C277.59,71.12 277.02,70.46 274.36,70.20 C269.76,69.74 257.39,78.57 244.77,91.31 C222.25,114.06 211.49,136.78 208.45,168.05 L 207.91 173.60 L 196.20 173.70 C189.77,173.76 183.15,173.96 181.50,174.15 L 178.50 174.50 L 177.83 166.41 C176.35,148.58 168.79,126.77 158.76,111.36 C152.39,101.58 132.10,81.17 122.34,74.73 C110.84,67.13 108.17,68.33 105.00,82.59 C102.02,95.95 101.39,113.14 103.40,126.70 C104.91,136.93 109.35,152.80 112.43,159.00 C113.11,160.38 114.92,164.08 116.45,167.23 C117.97,170.38 120.67,174.88 122.44,177.23 C134.53,193.25 138.15,198.22 138.61,199.43 C138.90,200.19 138.19,202.66 137.03,204.93 C135.88,207.20 131.91,216.58 128.23,225.78 C121.54,242.49 121.53,242.51 121.52,252.50 C121.50,262.31 121.57,262.61 125.10,268.00 C129.71,275.05 136.61,281.39 145.77,287.03 C149.77,289.49 156.52,293.94 160.77,296.91 C169.15,302.79 176.76,306.91 181.50,308.13 C183.15,308.55 189.47,308.81 195.55,308.70 C206.11,308.51 206.95,308.33 214.14,304.77 Z" fill="rgb(254,254,254)"/>
</g>
</svg>